<svg xmlns="http://www.w3.org/2000/svg" xmlns:xlink="http://www.w3.org/1999/xlink" version="1.1" x="0px" y="0px" viewBox="0 0 55 68.75" style="enable-background:new 0 0 55 55;" xml:space="preserve"><style type="text/css">
	.st0{fill:none;stroke:#000000;stroke-linecap:round;stroke-linejoin:round;stroke-miterlimit:10;}
	.st1{fill:none;stroke:#000000;stroke-miterlimit:10;}
	.st2{fill:none;stroke:#000000;stroke-linejoin:round;stroke-miterlimit:10;}
</style><g><path class="st0" d="M33.9113617,41.8468323c0.573082-3.9869232,2.3126221-7.7463303,5.1667938-10.6352654   c3.4102631-3.4518337,5.2860336-8.4253788,4.5293922-13.8067722c-1.0166054-7.230341-6.9733276-12.9840527-14.2292995-13.798769   c-9.8289776-1.1037498-18.1523228,6.5563498-18.1523228,16.1624413c0,4.4555874,1.7823753,8.4878769,4.6739779,11.4234371   c2.8566313,2.9001713,4.609374,6.6615429,5.187089,10.6549282H33.9113617z"/><g><path class="st0" d="M17.2019711,15.1819239C18.9618969,11.2480774,22.9129047,8.5,27.4934692,8.5"/><line class="st0" x1="16.2259903" y1="18.5898438" x2="16.2260895" y2="18.5898438"/></g><line class="st0" x1="33.9113617" y1="44.9667473" x2="21.1767883" y2="47.4876175"/><line class="st0" x1="33.294754" y1="48.979126" x2="20.5601807" y2="51.5"/></g><text x="0" y="70" fill="#000000" font-size="5px" font-weight="bold" font-family="'Helvetica Neue', Helvetica, Arial-Unicode, Arial, Sans-serif">Created by Dinosoft Labs</text><text x="0" y="75" fill="#000000" font-size="5px" font-weight="bold" font-family="'Helvetica Neue', Helvetica, Arial-Unicode, Arial, Sans-serif">from the Noun Project</text></svg>